<svg id="svg" xmlns="http://www.w3.org/2000/svg" xmlns:xlink="http://www.w3.org/1999/xlink" width="400" height="400" viewBox="0, 0, 400,400"><g id="svgg"><path id="path0" d="M17.777 192.778 L 17.777 367.778 53.889 367.103 C 97.210 366.293,95.556 366.735,95.556 355.967 L 95.556 347.349 104.322 355.443 C 143.013 391.162,221.121 373.687,250.824 322.667 C 311.866 217.818,201.628 93.901,105.902 159.762 L 95.556 166.880 95.556 92.329 L 95.556 17.778 56.667 17.778 L 17.778 17.778 17.777 192.778 M316.340 59.444 C 317.086 65.250,318.236 80.000,318.896 92.222 C 321.571 141.748,325.157 183.553,327.045 187.222 C 329.152 191.319,371.372 193.176,376.796 189.410 C 379.232 187.720,389.065 84.386,388.952 61.667 L 388.889 48.889 351.936 48.889 L 314.983 48.889 316.340 59.444 M167.585 220.813 C 203.640 248.314,184.890 304.444,139.649 304.444 C 90.569 304.444,75.425 240.588,118.889 216.908 C 130.309 210.687,157.128 212.837,167.585 220.813 " stroke="none" fill="#ffffff" fill-rule="evenodd"></path></g></svg>